# xmcd
#
# Track frame offsets: 
#        150
#        13502
#        23982
#        38607
#        53994
#        67075
#        78883
#        92240
#        108727
#        119850
#        132560
#        144307
#        158114
#        171649
#        182404
#
# Disc length: 2551 seconds
#
# Revision: 1
# Processed by: cddbd v1.5.2PL0 Copyright (c) Steve Scherf et al.
# Submitted via: ExactAudioCopy v1.0b3
#
DISCID=d509f50f
DTITLE=Various Artist - Ta Tragoudia tis Geitonias Cd1
DYEAR=2012
DGENRE=Folk
TTITLE0=Stamatis Kokotas - Romios agapise Romia
TTITLE1=Manolis Mitsias - Oso agapiomaste ta dyo
TTITLE2=Giannis Kalatzis - Isoun oraia
TTITLE3=Dimitra Galani - Maria me ta kitrina
TTITLE4=Biki Mosxoliou - Paei Ginei
TTITLE5=Giannis Parios - Pou tha paei pou
TTITLE6=Kostas Smakovitis - To Kalokairi to mortaki
TTITLE7=Grigoris Mpithikotsis - H Mpalanta tou Antrikou
TTITLE8=Aleka Mavili - Ayto to Agori me ta Matia ta melia
TTITLE9=Giannis Poulopoulos - Pame gia ypno Katernia
TTITLE10=Marinella - Exei o Theos
TTITLE11=Aleka Kanelidou - Xtypaei i Broxi
TTITLE12=Tolis Boskopoulos - Marinella - Ki Eleges
TTITLE13=Anna Vissi - Kitrino Galazio
TTITLE14=Nikos Ksilouris - Gia sou xara sou Venetia
EXTD=
EXTT0=
EXTT1=
EXTT2=
EXTT3=
EXTT4=
EXTT5=
EXTT6=
EXTT7=
EXTT8=
EXTT9=
EXTT10=
EXTT11=
EXTT12=
EXTT13=
EXTT14=
PLAYORDER=
